<svg width="256" height="66" viewBox="0 0 256 66" fill="none" xmlns="http://www.w3.org/2000/svg">
<path d="M0 2L256 2" stroke="black" stroke-width="3"/>
<path d="M0 18H256" stroke="black" stroke-width="3"/>
<path d="M0 34H256" stroke="black" stroke-width="3"/>
<path d="M0 50H256" stroke="black" stroke-width="3"/>
<path d="M0 64H256" stroke="black" stroke-width="3"/>
<path d="M15.1877 17.2398C15.1877 16.9098 15.1877 16.5798 14.6927 16.2448C14.1977 15.9098 13.2077 15.5798 12.6977 16.0698C12.1877 16.5598 12.1877 17.8798 12.6827 18.5598C13.1777 19.2398 14.1677 19.2398 14.6777 18.5798C15.1877 17.9198 15.1877 16.5998 14.6927 15.7548C14.1977 14.9098 13.2077 14.5798 12.3677 14.9048C11.5277 15.2298 10.8677 16.2198 11.0227 17.0598C11.1777 17.8998 12.1677 18.5598 13.1727 18.8998C14.1777 19.2398 15.1677 19.2398 16.0077 18.7448C16.8477 18.2498 17.5077 17.2598 17.6827 16.2548C17.8577 15.2498 17.5277 14.2598 16.5327 13.7498C15.5377 13.2398 13.8877 13.2398 12.8727 13.7348C11.8577 14.2298 11.5277 15.2198 11.6877 16.2248C11.8477 17.2298 12.5077 18.2198 13.6727 18.7298C14.8377 19.2398 16.4877 19.2398 17.5027 18.7448C18.5177 18.2498 18.8477 17.2598 18.5227 16.4198C16.949 12.3525 13.8577 10.2498 13.8527 8.41979C13.8413 4.25379 21.1677 4.57979 25.9977 3.40979C30.3452 2.35667 34.1777 3.56979 36.1727 4.39979C38.3034 5.28625 40.8377 7.88979 43.5027 10.8848C47.8539 15.7748 44.5277 25.2198 42.1977 29.2248C39.7772 33.3853 36.2077 37.2198 32.0377 40.2298C27.5557 43.465 23.2077 45.5598 20.0327 48.8948C18.2077 49.8998 16.1977 50.8998 14.2027 52.2298C13.1977 52.8998 12.2077 53.5598 11.1877 54.2398" stroke="black" stroke-width="3" stroke-linecap="round"/>
<path d="M59.1877 8.23979C59.1877 8.89979 60.1777 9.89979 61.8427 10.4048C62.5054 10.6058 62.8477 9.25979 62.3577 8.74979C61.8677 8.23979 60.5477 8.23979 59.5377 8.73479C58.5277 9.22979 57.8677 10.2198 57.8577 11.2248C57.8477 12.2298 58.5077 13.2198 59.3427 13.7298C60.1777 14.2398 61.1677 14.2398 62.1727 13.9098C63.1777 13.5798 64.1677 12.9198 64.6777 11.9198C65.1877 10.9198 65.1877 9.59979 64.3627 8.91979C63.5377 8.23979 61.8877 8.23979 60.8727 8.73479C59.8577 9.22979 59.5277 10.2198 59.8527 11.0598C60.1777 11.8998 61.1677 12.5598 63.1877 12.2398" stroke="black" stroke-width="3" stroke-linecap="round"/>
<path d="M58.8527 26.1142C58.8527 26.7742 59.1827 28.1042 60.3427 29.6042C60.9387 30.3748 62.4927 30.1142 63.3377 29.6192C64.1827 29.1242 64.5127 28.1342 64.1877 27.4592C63.8627 26.7842 62.8727 26.4542 61.8677 26.4492C60.8627 26.4442 59.8727 26.7742 59.3627 27.6042C58.8527 28.4342 58.8527 29.7542 59.5127 30.4342C60.1727 31.1142 61.4927 31.1142 62.5027 30.6192C63.5127 30.1242 64.1727 29.1342 64.0177 28.1292C63.8627 27.1242 62.8727 26.1342 61.8677 25.6242C60.8627 25.1142 59.8727 25.1142 59.1977 25.6092C58.5227 26.1042 58.1927 27.0942 58.1877 28.0992C58.1827 29.1042 58.5127 30.0942 59.3427 30.6042C60.1727 31.1142 61.4927 31.1142 62.5027 30.6192C63.5127 30.1242 64.1727 29.1342 64.1827 28.1292C64.1927 27.1242 63.5327 26.1342 62.6977 25.6242C61.8627 25.1142 60.8727 25.1142 60.0327 25.6092C59.1927 26.1042 58.5327 27.0942 58.6877 27.9342C58.8427 28.7742 59.8327 29.4342 60.8377 29.6092C61.8427 29.7842 62.8327 29.4542 63.8527 28.1142" stroke="black" stroke-width="3" stroke-linecap="round"/>
</svg>
