<svg width="256" height="111" viewBox="0 0 256 111" fill="none" xmlns="http://www.w3.org/2000/svg">
<path d="M21.6931 74.2277C21.3631 72.2377 20.6931 67.5877 22.8481 63.2427C25.2082 58.4843 30.6731 57.5677 34.6781 55.4027C36.5806 54.3743 40.9931 54.2277 46.4881 54.5577C52.0228 54.8901 54.0131 61.2077 55.5231 65.5427C56.5066 68.3662 55.3631 71.2177 54.5331 73.2127C52.7514 77.4952 47.7131 79.5477 43.7081 82.2177C39.9796 84.7034 35.0531 84.8877 29.8831 86.0577C21.9033 87.8636 17.7131 83.9077 14.0381 81.9027C10.5007 79.9728 11.0331 74.2477 11.0231 70.0777C11.0102 64.7061 16.0131 61.2477 18.1831 57.0777C21.1322 51.4105 25.0131 48.2477 28.0131 43.7477C33.6281 35.3253 40.0131 26.2677 41.6881 21.0777C44.0061 13.8953 42.0331 5.23771 40.5381 3.73771C37.7667 0.957041 33.7031 2.22771 31.8731 2.72271C27.7194 3.84624 28.6931 20.7677 29.6881 30.3777C30.1972 35.2947 31.3531 39.2077 31.8581 44.8727C32.251 49.2797 33.3531 53.2077 33.8581 59.7027C34.2644 64.9289 35.3531 70.2077 35.8581 86.6627C35.9983 91.2324 36.6931 96.5177 36.1981 103.348C36.011 105.929 34.7131 106.548 33.7081 107.053C29.8851 108.974 26.3731 109.228 24.2081 108.733C23.3631 108.238 23.0331 107.248 22.8631 106.243C22.6931 105.238 22.6931 104.248 22.6931 103.228" stroke="black" stroke-width="3" stroke-linecap="round"/>
<path d="M0 28H256" stroke="black" stroke-width="3"/>
<path d="M0 44H256" stroke="black" stroke-width="3"/>
<path d="M0 60H256" stroke="black" stroke-width="3"/>
<path d="M0 76H256" stroke="black" stroke-width="3"/>
<path d="M0 90H256" stroke="black" stroke-width="3"/>
</svg>
